<?xml version="1.0" encoding="utf-8"?>
<!-- Generator: Adobe Illustrator 28.1.0, SVG Export Plug-In . SVG Version: 6.00 Build 0)  -->
<svg version="1.1" id="Layer_1" xmlns="http://www.w3.org/2000/svg" xmlns:xlink="http://www.w3.org/1999/xlink" x="0px" y="0px"
	 viewBox="0 0 512 512" style="enable-background:new 0 0 512 512;" xml:space="preserve">
<g>
	
		<image style="overflow:visible;enable-background:new    ;" width="398" height="398" xlink:href="B0D56E3C.png"  transform="matrix(0.8543 0 0 0.897 102 98.5)">
	</image>
</g>
<g>
	<g>
		<path d="M241.9,210.8l1.3-5.5c10.7-1.1,19.9-2.8,27.5-4.9c-1.8,5.7-3.8,13.2-5.9,22.5l-8.4,34.5l10.2,0.6
			c4.7,0.2,9.9-1.1,15.5-3.9c5.6-2.9,10.6-7.9,15-15.1s6.6-15,6.6-23.3s-2.7-14.8-8-19.6c-5.4-4.8-13.5-7.2-24.5-7.2
			c-12.5,0-24.8,3.5-36.9,10.4c-12,6.9-21.3,15.7-27.9,26.5c-6.5,10.8-9.8,21.4-9.8,31.8c0,5.1,0.9,9.6,2.6,13.4s4.7,7.5,9.1,11.2
			c3.6,2.9,5.4,5.8,5.4,8.6c0,1.8-0.6,3.3-1.8,4.5s-2.6,1.8-4.2,1.8c-4.4,0-8.6-3.3-12.7-9.9c-4.1-6.6-6.1-15-6.1-25.1
			c0-18.6,6.4-35.5,19.3-50.8c16.9-20.1,39.5-30.2,67.8-30.2c10.8,0,19.6,1.6,26.5,4.7c6.9,3.1,12.1,7.4,15.5,12.8
			s5.1,11.2,5.1,17.5c0,8-2.4,15.9-7.2,23.6s-11.9,14-21.3,18.7c-9.4,4.7-19.8,7.1-31.3,7.1c-1.8,0-4.5-0.1-8.3-0.4l-8.9,38.2
			c-1.5,6.5-3.1,12.8-5,19.1c5.7,1.5,10.8,2.3,15.1,2.3c5.4,0,11.2-1.1,17.4-3.4l-1.3,6.9c-5.8,1.7-10.6,2.6-14.6,2.6
			c-3.8,0-9.5-0.5-16.8-1.4c-5.9-0.8-10.7-1.2-14.4-1.2c-7.2,0-14.5,0.9-22,2.8l1.3-6.5c7.7-1.4,12.9-3.4,15.7-6
			c4-3.7,7.2-11.1,9.8-22.2l16.7-73.5c0.7-3.4,1.1-5.8,1.1-7.2c0-1.3-0.5-2.5-1.4-3.5c-1-1-2.1-1.5-3.4-1.5
			C243.5,210.6,242.8,210.6,241.9,210.8z"/>
	</g>
</g>
<g>
	<g>
		<path d="M290.5,368.5l-1.4,5.7c-4.6,1-8.3,1.5-11.2,1.5c-2.8,0-7.4-0.3-13.8-0.9c-4.9-0.4-9.2-0.6-13-0.6
			c-6.6,0-13.5,0.6-20.5,1.8l1.4-5.5c6.7-0.7,11.6-2.1,14.6-4.2c2.2-1.5,4.1-4.1,5.6-7.8c1.6-3.7,5.1-16.5,10.6-38.6l12.8-52.8
			l0.7-2.5c-3.9-0.2-6.9-0.3-8.9-0.3c-12.3,0-22,1.3-29.2,4s-12.6,6.5-16.2,11.6c-3.6,5-5.4,10.5-5.4,16.4c0,2.1,0.4,4,1.1,5.7
			c0.5,1.2,2,3.1,4.4,5.8c2.3,2.5,3.4,4.7,3.4,6.8c0,1.8-0.7,3.3-2,4.6s-2.9,1.9-4.8,1.9c-2.8,0-5.1-1.3-6.8-4
			c-2.5-3.9-3.8-8.9-3.8-14.9c0-8.1,2.5-16,7.5-23.6s11.9-13.5,20.7-17.7s19.4-6.3,32-6.3c6,0,15.5,0.9,28.6,2.6
			c9.3,1.2,16,1.8,20.2,1.8s7.1-0.7,8.9-2.1c1.7-1.4,2.6-3.2,2.6-5.6c0-0.5-0.1-1.4-0.3-2.8c-0.2-1.3-0.3-2.1-0.3-2.5
			c0-1.8,0.6-3.3,1.8-4.5c1.2-1.2,2.6-1.8,4.3-1.8c2,0,3.6,0.7,4.9,2.2s1.9,3.4,1.9,5.9c0,5.1-2.7,9.4-8.1,13s-14.4,5.5-27,5.5
			c-4.5,0-9.3-0.2-14.4-0.6c-0.7,2.4-2.8,10.5-6.3,24.3l-8.7,34.5l-5.3,21l-5.5,24c4.5,0.5,8.1,0.8,11,0.8
			C281,370.2,285.7,369.6,290.5,368.5z"/>
	</g>
</g>
</svg>
